<svg width="25" height="24" viewBox="0 0 25 24" fill="none" xmlns="http://www.w3.org/2000/svg">
<path d="M12.1563 0.318666C12.3765 0.11338 12.6607 0 12.9551 0C13.2495 0 13.5337 0.11338 13.7539 0.318666L24.5806 10.4243C24.8069 10.6501 24.9408 10.9594 24.954 11.2869C24.9672 11.6144 24.8586 11.9344 24.6512 12.1794C24.4438 12.4244 24.1539 12.5751 23.8426 12.5998C23.5313 12.6245 23.2231 12.5211 22.9831 12.3115L22.5789 11.9364V21.4736C22.5789 22.1436 22.3254 22.7862 21.8742 23.26C21.423 23.7338 20.811 24 20.1729 24H5.73723C5.09913 24 4.48717 23.7338 4.03596 23.26C3.58476 22.7862 3.33128 22.1436 3.33128 21.4736V11.9364L2.92708 12.3115C2.68703 12.5211 2.37882 12.6245 2.06755 12.5998C1.75628 12.5751 1.46632 12.4244 1.25894 12.1794C1.05155 11.9344 0.942979 11.6144 0.956151 11.2869C0.969322 10.9594 1.10321 10.6501 1.32953 10.4243L12.1563 0.318666ZM5.73723 9.68787V21.4736H9.34615V15.1576C9.34615 14.8225 9.47289 14.5012 9.6985 14.2643C9.9241 14.0274 10.2301 13.8943 10.5491 13.8943H15.361C15.6801 13.8943 15.9861 14.0274 16.2117 14.2643C16.4373 14.5012 16.564 14.8225 16.564 15.1576V21.4736H20.1729V9.68913L12.9551 2.95245L5.73723 9.68787ZM14.1581 21.4736V16.4208H11.7521V21.4736H14.1581Z" fill="white"/>
</svg>
