<svg width="25" height="24" viewBox="0 0 25 24" fill="none" xmlns="http://www.w3.org/2000/svg">
<path d="M12.1562 0.318666C12.3764 0.11338 12.6606 0 12.955 0C13.2494 0 13.5336 0.11338 13.7538 0.318666L24.5806 10.4243C24.8069 10.6501 24.9408 10.9594 24.9539 11.2869C24.9671 11.6144 24.8585 11.9344 24.6511 12.1794C24.4438 12.4244 24.1538 12.5751 23.8425 12.5998C23.5313 12.6245 23.223 12.5211 22.983 12.3115L22.5788 11.9364V21.4736C22.5788 22.1436 22.3253 22.7862 21.8741 23.26C21.4229 23.7338 20.811 24 20.1729 24H5.73715C5.09905 24 4.48709 23.7338 4.03589 23.26C3.58468 22.7862 3.3312 22.1436 3.3312 21.4736V11.9364L2.927 12.3115C2.68696 12.5211 2.37875 12.6245 2.06747 12.5998C1.7562 12.5751 1.46625 12.4244 1.25886 12.1794C1.05148 11.9344 0.942903 11.6144 0.956074 11.2869C0.969246 10.9594 1.10313 10.6501 1.32945 10.4243L12.1562 0.318666ZM5.73715 9.68787V21.4736H9.34608V15.1576C9.34608 14.8225 9.47282 14.5012 9.69842 14.2643C9.92402 14.0274 10.23 13.8943 10.5491 13.8943H15.361C15.68 13.8943 15.986 14.0274 16.2116 14.2643C16.4372 14.5012 16.5639 14.8225 16.5639 15.1576V21.4736H20.1729V9.68913L12.955 2.95245L5.73715 9.68787ZM14.158 21.4736V16.4208H11.752V21.4736H14.158Z" fill="white"/>
</svg>

