<svg width="25" height="24" viewBox="0 0 25 24" fill="none" xmlns="http://www.w3.org/2000/svg">
<path d="M12.1612 0.318666C12.3813 0.11338 12.6655 0 12.96 0C13.2544 0 13.5386 0.11338 13.7587 0.318666L24.5855 10.4243C24.8118 10.6501 24.9457 10.9594 24.9589 11.2869C24.9721 11.6144 24.8635 11.9344 24.6561 12.1794C24.4487 12.4244 24.1588 12.5751 23.8475 12.5998C23.5362 12.6245 23.228 12.5211 22.988 12.3115L22.5838 11.9364V21.4736C22.5838 22.1436 22.3303 22.7862 21.8791 23.26C21.4279 23.7338 20.8159 24 20.1778 24H5.74211C5.10401 24 4.49205 23.7338 4.04085 23.26C3.58964 22.7862 3.33616 22.1436 3.33616 21.4736V11.9364L2.93196 12.3115C2.69192 12.5211 2.38371 12.6245 2.07243 12.5998C1.76116 12.5751 1.47121 12.4244 1.26382 12.1794C1.05644 11.9344 0.947862 11.6144 0.961033 11.2869C0.974205 10.9594 1.10809 10.6501 1.33441 10.4243L12.1612 0.318666ZM5.74211 9.68787V21.4736H9.35104V15.1576C9.35104 14.8225 9.47778 14.5012 9.70338 14.2643C9.92898 14.0274 10.235 13.8943 10.554 13.8943H15.3659C15.685 13.8943 15.9909 14.0274 16.2165 14.2643C16.4421 14.5012 16.5689 14.8225 16.5689 15.1576V21.4736H20.1778V9.68913L12.96 2.95245L5.74211 9.68787ZM14.1629 21.4736V16.4208H11.757V21.4736H14.1629Z" fill="white"/>
</svg>
