<svg width="15" height="15" viewBox="0 0 15 15" fill="none" xmlns="http://www.w3.org/2000/svg">
<path id="Vector" d="M7.4802 14.8925C3.32655 14.9517 0.158407 11.7135 0.101834 7.60164C0.0414858 3.21548 3.47132 0.15762 7.27672 0.103378C11.2021 0.0474251 14.5748 3.26504 14.6317 7.39453C14.6862 11.357 11.6662 14.8328 7.4802 14.8925ZM7.43843 13.5599C10.9007 13.5105 13.3653 10.5556 13.3221 7.41319C13.2771 4.13908 10.5673 1.40445 7.27183 1.45143C4.24869 1.49452 1.36428 3.95436 1.4142 7.58293C1.45808 10.9763 4.13969 13.6069 7.43843 13.5599ZM10.6123 8.49537C10.2657 11.0025 8.29356 11.3823 7.46161 11.3942C4.5383 11.4358 3.69266 8.98766 3.67145 7.44626C3.64536 5.54992 4.81822 3.46662 7.39281 3.42992C8.53223 3.41368 10.3042 3.98487 10.6371 6.2767L8.80638 6.30279C8.74998 5.40606 8.21368 4.96326 7.19143 4.97783C6.509 4.98756 5.49985 5.54495 5.52635 7.47087C5.56019 9.93063 6.99787 9.85383 7.2205 9.85066C8.19025 9.83683 8.72936 9.3935 8.83737 8.52115L8.30446 8.52874L9.72554 7.04122L11.1814 8.48773L10.6123 8.49537Z" fill="#080808"/>
</svg>
