<svg width="24" height="24" viewBox="0 0 24 24" fill="none" xmlns="http://www.w3.org/2000/svg">
<path d="M3.04023 0.8V1.6H0.75C0.33579 1.6 0 1.95818 0 2.4V23.2C0 23.6418 0.33579 24 0.75 24H23.25C23.6642 24 24 23.6418 24 23.2V2.4C24 1.95818 23.6642 1.6 23.25 1.6H20.9598V0.8C20.9598 0.358176 20.6239 0 20.2098 0H15.6676C14.2539 0 12.9294 0.647872 12 1.74432C11.0705 0.647872 9.74612 0 8.33243 0H3.79023C3.37602 0 3.04023 0.358176 3.04023 0.8ZM19.4598 2.34266C19.4584 2.3616 19.4578 2.38072 19.4578 2.4C19.4578 2.41928 19.4584 2.4384 19.4598 2.45734V19.1059H15.9303C14.7534 19.1059 13.6397 19.5395 12.75 20.2952V3.32622C13.3894 2.25067 14.4882 1.6 15.6676 1.6H19.4598V2.34266ZM20.9598 3.2H22.5V22.4H12.9405C13.6177 21.3453 14.732 20.7059 15.9303 20.7059H20.2098C20.6239 20.7059 20.9598 20.3477 20.9598 19.9059V3.2ZM8.06965 20.7059C9.26803 20.7059 10.3822 21.3453 11.0594 22.4H1.5V3.2H3.04023V19.9059C3.04023 20.3477 3.37602 20.7059 3.79023 20.7059H8.06965ZM4.54023 19.1059V2.45733C4.54149 2.4384 4.54214 2.41928 4.54214 2.4C4.54214 2.38072 4.54149 2.3616 4.54023 2.34267V1.6H8.33243C9.51179 1.6 10.6106 2.25067 11.25 3.32622V20.2952C10.3603 19.5395 9.24661 19.1059 8.06965 19.1059H4.54023Z" fill="white"/>
</svg>
